PathFileType	4	(X/Y/Z)	Apose_0-50.trc
DataRate	CameraRate	NumFrames	NumMarkers	Units	OrigDataRate	OrigDataStartFrame	OrigNumFrames
30	30	6	22	m	30	30	50
Frame#	Time	Hip			RHip			RKnee			RAnkle			RBigToe			RSmallToe			RHeel			LHip			LKnee			LAnkle			LBigToe			LSmallToe			LHeel			Neck			Head			Nose			RShoulder			RElbow			RWrist			LShoulder			LElbow			LWrist		
		X1	Y1	Z1	X2	Y2	Z2	X3	Y3	Z3	X4	Y4	Z4	X5	Y5	Z5	X6	Y6	Z6	X7	Y7	Z7	X8	Y8	Z8	X9	Y9	Z9	X10	Y10	Z10	X11	Y11	Z11	X12	Y12	Z12	X13	Y13	Z13	X14	Y14	Z14	X15	Y15	Z15	X16	Y16	Z16	X17	Y17	Z17	X18	Y18	Z18	X19	Y19	Z19	X20	Y20	Z20	X21	Y21	Z21	X22	Y22	Z22
31	1.0333333333333334	0.043080784672343206	0.9203301701413741	0.35663804354717116	0.03656028345371871	0.8932582244527673	0.471820388901717	0.005505475240369733	0.5071979426454533	0.49910356076679385	-0.01338345981477253	0.10087000574247565	0.5171207302605595	0.20946689551435507	0.04313938936493119	0.5630730967099284	0.15127961229912998	0.034066712949290694	0.6156608822922208	-0.057713567147872666	0.029999844226560147	0.5035797150910195	0.03717666253621	0.8898348095801883	0.24309312690720136	0.01838938589427233	0.5030858672972917	0.22166490733510627	0.0018336819049132964	0.11678471359814152	0.20976725450190925	0.20856832726297533	0.03967083979570108	0.1890554188861327	0.16291015931137548	0.039598175990992836	0.1308612937780191	-0.03562075580415805	0.03897609107147723	0.22111874679095506	0.06238962839219782	1.5662490984103492	0.346701727018419	0.2771376365325634	1.7773905509769388	0.3080957254671802	0.2568337971107759	1.5985302465086166	0.32357291403891336	0.030158843443547086	1.4930391369395954	0.5386442708839341	0.07239000758198855	1.232365730239853	0.7188921255241718	0.13670129765747122	1.0362078475315313	0.8865555846638106	0.014395883137019689	1.4750199319909152	0.14754481116658827	0.024745415188734576	1.225526055824576	0.000150898750680743	0.08761698487106015	1.0168399585212713	-0.14638367114855377
32	1.0666666666666669	0.04309764300455154	0.9197268635228427	0.35611839028540154	0.03701754895279359	0.892353269834023	0.47091177906018084	0.0047031493653666365	0.5065357049850033	0.4986009515011727	-0.01375917818759733	0.10114681851753891	0.5170164622336699	0.20929167226308792	0.042747501374519895	0.5635917455953459	0.15144548801053254	0.03383203075382696	0.6157675627985829	-0.05731704521612738	0.030431133539076914	0.5035806203441714	0.037883696855534166	0.889178855781306	0.24264759618374507	0.019515082153655296	0.5019205555845757	0.22090880712702596	0.001077304834061578	0.11834351717774293	0.2104562170196809	0.20844606370233335	0.03940183462327855	0.18955524918410852	0.16315585157496082	0.03922493523587914	0.13148141505499336	-0.03565438082268622	0.03856670137438298	0.2209869954431142	0.0622435213827628	1.566554157071155	0.34644080659010484	0.28047107116369513	1.7775372256567408	0.30545603755055917	0.25046200364101123	1.5970090966994714	0.3219993523697833	0.030524975201490265	1.4929392556904846	0.538638656031774	0.07210774715487597	1.2318783295703417	0.7184676209075449	0.13645713178852592	1.0366044777982686	0.8871838188646706	0.013856605215681425	1.4750602774480832	0.14808042918510902	0.02388238824385624	1.225367963284036	1.8923874946392046e-05	0.08695696698255928	1.017112184990437	-0.14612256174906138
33	1.1	0.04308086712918617	0.9192047439110713	0.35575637935576354	0.037456919606166844	0.8916092713660104	0.4701026567531197	0.004083590910953801	0.5060465909061425	0.4984213181055274	-0.013893029143675992	0.10150254356740666	0.5166820421833564	0.209112740429895	0.042234485681518476	0.5638240242215481	0.151344377553905	0.033468343839022745	0.6158216844617105	-0.05708530709331245	0.0306327200351797	0.5035258372095356	0.03841448141041965	0.8885695223351971	0.242315834867783	0.021647872778792182	0.5005235012653181	0.21965164852579622	0.0004178338210549915	0.11921807032221207	0.2108633915720224	0.2084015154825446	0.03895553521188326	0.19004969524086118	0.16338055341564203	0.03885609143920895	0.13207631690137567	-0.035666527823568606	0.038408291084868894	0.22079063751955455	0.062304337122272256	1.5669287423952278	0.34627578883989507	0.28027343940078087	1.7778020047520615	0.30354625692622494	0.2512927566727415	1.598511059386222	0.32237950539497046	0.03092109214261102	1.492774100866344	0.5386775559080904	0.07174606727931401	1.2313938727385518	0.7183439058433783	0.1357305031812642	1.0373466117771835	0.888003619010508	0.013394720442668763	1.4751212781184528	0.14863045197213778	0.0233266073273655	1.2252522364835217	0.00013621225665745901	0.08633830585650638	1.0173862261509825	-0.14575690608793124
34	1.1333333333333333	0.043216060845140056	0.9188897106492699	0.355654233755386	0.037930855438287496	0.8913315499986381	0.4695748949796553	0.0037107361961322485	0.5057952610170403	0.4984703192928309	-0.013761908663306758	0.10240259342754318	0.5160870775851403	0.2089257030663162	0.04180833511231397	0.5637930689071051	0.15097392412724564	0.03313851479797848	0.6158650163622051	-0.05700577535418673	0.030618137432895206	0.5034777068738892	0.03880805580249763	0.8882982562877744	0.2421537821282496	0.024474744594385818	0.49975539568307353	0.21843623248443161	6.90359236493112e-05	0.11939651488608771	0.2109082765903985	0.2084965580985865	0.0385353777452271	0.19057734272183574	0.1634843898860781	0.03850219833086173	0.13247057097105536	-0.03567884314855197	0.0386796837550293	0.22052606828921206	0.06276267156288828	1.5672304552353367	0.34628284229021117	0.2755398070360102	1.7791619845573283	0.30531964860099514	0.25806072972328753	1.6027679019103005	0.32488393028976337	0.03127268154299429	1.492545275318231	0.5387758346964293	0.0718291855380204	1.2309021012961026	0.7186841840060175	0.13545272305531564	1.0378594276845667	0.8887710580045448	0.013097548124387922	1.475202341565812	0.14929134027858612	0.023238914965003465	1.2252090578017785	0.0004972971202470065	0.0858430856125559	1.01749442504438	-0.145406634394159
35	1.1666666666666667	0.04359564124085503	0.9188770770856688	0.355792031251679	0.03849896231308053	0.8916935094601386	0.46940784782542944	0.0036050382062334323	0.50573841500497	0.49856351529341925	-0.013363940284051062	0.10413008209308364	0.515304483721086	0.20864418194500478	0.04156873543611766	0.5635675436429168	0.15043827691405454	0.03295854100397818	0.6159334606608955	-0.057023826574569586	0.030461182155523646	0.5034931981377965	0.03918151930335209	0.8885401876462165	0.24222219157192898	0.027400954591488003	0.5003307776600726	0.21777563649620568	0.00011837653323496183	0.11903157441523135	0.21061545079365532	0.20877669217954886	0.0383055622265505	0.1911452356874409	0.16348449344569588	0.03821446510839145	0.1325563202277455	-0.03576398671246171	0.03940634169699122	0.22025893452358244	0.06372972018745239	1.5674622335367139	0.34648611301086585	0.2665600621448612	1.7818167448069042	0.3107105422647046	0.2675809623880469	1.6088592796257501	0.32952308674558767	0.03153366032292351	1.4923129016877301	0.5388808591640251	0.0725889779912281	1.2304316791671057	0.7194439360502005	0.1357032588496518	1.0380306227718648	0.889424715781079	0.013108393329719888	1.4753093922948284	0.15005086286325883	0.023587644432821735	1.2252600221742438	0.0010607307608240541	0.08544517305664111	1.0174242696908364	-0.1451991221365543
36	1.2	0.04419850679144149	0.9191963124981032	0.35607438976369515	0.0391652503782509	0.8926117105834316	0.4695979626947881	0.0037637393036339907	0.5058050538431205	0.49855537057735416	-0.012724074916229351	0.10644684687721018	0.5145498773250868	0.208223627062318	0.041483478165043754	0.5631805267713166	0.14990364644971665	0.032935773191204325	0.6159654667636214	-0.05710703500319307	0.030222111270282733	0.5035908851189045	0.03964300914585321	0.8892394166224173	0.2425890283956499	0.02961013003180966	0.5022107190256025	0.21784246153848613	0.0004158114818623715	0.11841573763729364	0.2101389811132135	0.20918276075255018	0.038277260304255344	0.19165102923994481	0.16341222842431669	0.038055208316419724	0.13235303313446542	-0.036015720966500867	0.040412665364323766	0.22006690892361486	0.06512416712811121	1.567880239580694	0.3468719280018727	0.2536260546425827	1.7852680092374968	0.31761671996440166	0.2765247893490663	1.6158601392630199	0.33619921804515934	0.03175005266457438	1.4921781909780778	0.5388797003083119	0.07395263462223073	1.2301862058920296	0.7203081668661271	0.13588934904303399	1.0382336406895079	0.8900111994874669	0.013584432756069686	1.4754383897603633	0.15072662252738928	0.024232338126488333	1.2254098550416719	0.0017735419546145317	0.08505965256958288	1.0173070482348887	-0.14519163406142954
